# xmcd CD database file
#
# Track frame offsets:
#	150
#	40062
#	73828
#	96913
#	146030
#	172568
#
# Disc length: 2635 seconds
#
# Revision: 0
# Processed by: cddbd v1.4PL0 Copyright (c) Steve Scherf et al.
# Submitted via: CDex 1.50Beta3
#
DISCID=4b0a4906
DTITLE=Varios Artists - Hot Club Mixes
DYEAR=1994
DGENRE=Salsa
TTITLE0=Special Club Mix
TTITLE1=Jonny Ventura Club Mix
TTITLE2=Tributo al los soneros Megamix
TTITLE3=Grupe Niche Club Mix
TTITLE4=Merenge Dance
TTITLE5=Descarga
EXTD=YEAR: 1994
EXTT0=
EXTT1=
EXTT2=
EXTT3=
EXTT4=
EXTT5=
PLAYORDER=
